<svg id="Layer_1" data-name="Layer 1" xmlns="http://www.w3.org/2000/svg" viewBox="0 0 90 80"><defs><style>.cls-1,.cls-9{fill:#79469a;}.cls-1,.cls-3,.cls-4,.cls-5{opacity:0.15;}.cls-2{fill:none;}.cls-3,.cls-8{fill:#f9a225;}.cls-4,.cls-6{fill:#a7b93a;}.cls-5,.cls-7{fill:#eb3a94;}.cls-6,.cls-7,.cls-8,.cls-9{opacity:0.5;}</style></defs><path class="cls-1" d="M42,43.08v9.23a3,3,0,0,1-3,3.07H30v6.16h9a3,3,0,0,1,3,3.07v9.23h6V43.08Z"/><polygon class="cls-2" points="36 40 36 30.77 27 30.77 18 30.77 18 40 18 49.23 27 49.23 36 49.23 36 40"/><path class="cls-3" d="M12,52.31V43.08H6V73.84h6V64.61a3,3,0,0,1,3-3.07h9V55.38H15A3,3,0,0,1,12,52.31Z"/><path class="cls-4" d="M42,27.69v9.23h6V18.46H39a3,3,0,0,1-3-3.08V6.15H30V24.61h9A3,3,0,0,1,42,27.69Z"/><path class="cls-5" d="M15,24.61h9V6.15H18v9.23a3,3,0,0,1-3,3.08H6V36.92h6V27.69A3,3,0,0,1,15,24.61Z"/><path class="cls-4" d="M78,64.62a3,3,0,0,1-3,3.07H54v6.16H84V55.39H78Z"/><path class="cls-2" d="M84,30.77H75a3,3,0,0,1-3-3.08V18.46H66V61.54h6V52.31a3,3,0,0,1,3-3.08h9V30.77Z"/><polygon class="cls-3" points="54 18.46 54 40 54 61.54 60 61.54 60 18.46 54 18.46"/><path class="cls-5" d="M54,6.15v6.16H75a3,3,0,0,1,3,3.07v9.23h6V6.15Z"/><path class="cls-6" d="M84,76.92V73.85H54v3.07A3,3,0,0,1,51,80H87A3,3,0,0,1,84,76.92Z"/><path class="cls-6" d="M72,52.31v9.23H66v3.08a3,3,0,0,1-3,3.07H75a3,3,0,0,0,3-3.07V55.39h6V49.23H75A3,3,0,0,0,72,52.31Z"/><path class="cls-7" d="M51,12.31H63a3,3,0,0,1,3,3.08v3.07h6v9.23a3,3,0,0,0,3,3.08h9V24.61H78V15.38a3,3,0,0,0-3-3.07H54V6.15H84V3.08A3,3,0,0,1,87,0H51a3,3,0,0,0-3,3.08v9.23h3Z"/><path class="cls-8" d="M18,40a3,3,0,0,1-3,3.08H12v9.23a3,3,0,0,0,3,3.07h9V52.31a3,3,0,0,1,3-3.08H18Z"/><path class="cls-8" d="M24,64.61V61.54H15a3,3,0,0,0-3,3.07v9.23H6V43.08H3A3,3,0,0,1,0,40V76.92A3,3,0,0,0,3,80H15a3,3,0,0,0,3-3.08V67.69h9A3,3,0,0,1,24,64.61Z"/><path class="cls-9" d="M48,76.92V73.84H42V64.61a3,3,0,0,0-3-3.07H30v3.07a3,3,0,0,1-3,3.08h9v9.23A3,3,0,0,0,39,80H51A3,3,0,0,1,48,76.92Z"/><path class="cls-9" d="M42,52.31V43.08H39A3,3,0,0,1,36,40v9.23H27a3,3,0,0,1,3,3.08v3.07h9A3,3,0,0,0,42,52.31Z"/><path class="cls-6" d="M54,76.92V67.69H51a3,3,0,0,1-3-3.07v12.3A3,3,0,0,0,51,80h0A3,3,0,0,0,54,76.92Z"/><path class="cls-9" d="M54,76.92V67.69H51a3,3,0,0,1-3-3.07v12.3A3,3,0,0,0,51,80h0A3,3,0,0,0,54,76.92Z"/><path class="cls-8" d="M30,64.61V52.31a3,3,0,1,0-6,0v12.3a3,3,0,1,0,6,0Z"/><path class="cls-9" d="M30,64.61V52.31a3,3,0,1,0-6,0v12.3a3,3,0,1,0,6,0Z"/><path class="cls-7" d="M27,30.77a3,3,0,0,1-3-3.08V24.61H15a3,3,0,0,0-3,3.08v9.23h3A3,3,0,0,1,18,40V30.77Z"/><path class="cls-7" d="M3,36.92H6V18.46h9a3,3,0,0,0,3-3.08V6.15h6V3.08A3,3,0,0,1,27,0H15a3,3,0,0,0-3,3.08v9.23H3a3,3,0,0,0-3,3.07V40A3,3,0,0,1,3,36.92Z"/><path class="cls-8" d="M3,43.08H15a3.08,3.08,0,0,0,0-6.16H3a3.08,3.08,0,0,0,0,6.16Z"/><path class="cls-7" d="M3,43.08H15a3.08,3.08,0,0,0,0-6.16H3a3.08,3.08,0,0,0,0,6.16Z"/><path class="cls-6" d="M30,3.08V6.15h6v9.23a3,3,0,0,0,3,3.08h9V15.39h0V12.31H42V3.08A3,3,0,0,0,39,0H27A3,3,0,0,1,30,3.08Z"/><path class="cls-6" d="M36,40a3,3,0,0,1,3-3.08h3V27.69a3,3,0,0,0-3-3.08H30v3.08a3,3,0,0,1-3,3.08h9Z"/><path class="cls-7" d="M48,15.39a3,3,0,0,1,3-3.08H48v3.07Z"/><path class="cls-6" d="M48,15.39a3,3,0,0,1,3-3.08H48v3.07Z"/><path class="cls-9" d="M42,36.92H39a3.08,3.08,0,0,0,0,6.16h9V36.92Z"/><path class="cls-6" d="M42,36.92H39a3.08,3.08,0,0,0,0,6.16h9V36.92Z"/><path class="cls-7" d="M24,3.08V27.69a3,3,0,1,0,6,0V3.08a3,3,0,1,0-6,0Z"/><path class="cls-6" d="M24,3.08V27.69a3,3,0,1,0,6,0V3.08a3,3,0,1,0-6,0Z"/><path class="cls-7" d="M84,3.08V30.77h3a3,3,0,0,0,3-3.08V3.08A3,3,0,0,0,87,0h0A3,3,0,0,0,84,3.08Z"/><path class="cls-6" d="M90,76.92V52.31a3,3,0,0,0-3-3.08H84V76.92a3,3,0,1,0,6,0Z"/><polygon class="cls-8" points="54 18.46 60 18.46 60 61.54 66 61.54 66 18.46 54 18.46 54 18.46"/><path class="cls-6" d="M66,64.62V61.54H54v6.15h9A3,3,0,0,0,66,64.62Z"/><path class="cls-8" d="M66,64.62V61.54H54v6.15h9A3,3,0,0,0,66,64.62Z"/><path class="cls-7" d="M54,15.38v3.08H66V15.39a3,3,0,0,0-3-3.08H51A3,3,0,0,1,54,15.38Z"/><path class="cls-8" d="M54,15.38v3.08H66V15.39a3,3,0,0,0-3-3.08H51A3,3,0,0,1,54,15.38Z"/><path class="cls-9" d="M51,61.54h3V40a3,3,0,0,1-3,3.08H48V64.62A3,3,0,0,1,51,61.54Z"/><path class="cls-8" d="M51,61.54h3V40a3,3,0,0,1-3,3.08H48V64.62A3,3,0,0,1,51,61.54Z"/><path class="cls-6" d="M51,61.54a3.08,3.08,0,0,0,0,6.15h3V61.54Z"/><path class="cls-9" d="M51,61.54a3.08,3.08,0,0,0,0,6.15h3V61.54Z"/><path class="cls-8" d="M51,61.54a3.08,3.08,0,0,0,0,6.15h3V61.54Z"/><path class="cls-6" d="M51,36.92A3,3,0,0,1,54,40V18.46H51a3,3,0,0,1-3-3.07h0V36.92Z"/><path class="cls-8" d="M51,36.92A3,3,0,0,1,54,40V18.46H51a3,3,0,0,1-3-3.07h0V36.92Z"/><path class="cls-7" d="M51,18.46h3V15.38a3,3,0,0,0-3-3.07h0a3.08,3.08,0,0,0,0,6.15Z"/><path class="cls-6" d="M51,18.46h3V15.38a3,3,0,0,0-3-3.07h0a3.08,3.08,0,0,0,0,6.15Z"/><path class="cls-8" d="M51,18.46h3V15.38a3,3,0,0,0-3-3.07h0a3.08,3.08,0,0,0,0,6.15Z"/><path class="cls-9" d="M51,36.92H48v6.16h3a3.08,3.08,0,0,0,0-6.16Z"/><path class="cls-6" d="M51,36.92H48v6.16h3a3.08,3.08,0,0,0,0-6.16Z"/><path class="cls-8" d="M51,36.92H48v6.16h3a3.08,3.08,0,0,0,0-6.16Z"/></svg>